<?xml version="1.0" encoding="UTF-8" standalone="no"?>
<!-- Created with Inkscape (http://www.inkscape.org/) -->

<svg
   xmlns:dc="http://purl.org/dc/elements/1.1/"
   xmlns:cc="http://creativecommons.org/ns#"
   xmlns:rdf="http://www.w3.org/1999/02/22-rdf-syntax-ns#"
   xmlns:svg="http://www.w3.org/2000/svg"
   xmlns="http://www.w3.org/2000/svg"
   xmlns:sodipodi="http://sodipodi.sourceforge.net/DTD/sodipodi-0.dtd"
   xmlns:inkscape="http://www.inkscape.org/namespaces/inkscape"
   id="svg5021"
   version="1.1"
   inkscape:version="0.48.2 r9819"
   width="624.91429"
   height="353.29913"
   xml:space="preserve"
   sodipodi:docname="Untitled.pdf"><metadata
     id="metadata5027"><rdf:RDF><cc:Work
         rdf:about=""><dc:format>image/svg+xml</dc:format><dc:type
           rdf:resource="http://purl.org/dc/dcmitype/StillImage" /><dc:title></dc:title></cc:Work></rdf:RDF></metadata><defs
     id="defs5025"><clipPath
       clipPathUnits="userSpaceOnUse"
       id="clipPath5037"><path
         d="M 0,0 612,0 612,792 0,792 0,0 z"
         id="path5039" /></clipPath></defs><sodipodi:namedview
     pagecolor="#ffffff"
     bordercolor="#666666"
     borderopacity="1"
     objecttolerance="10"
     gridtolerance="10"
     guidetolerance="10"
     inkscape:pageopacity="0"
     inkscape:pageshadow="2"
     inkscape:window-width="640"
     inkscape:window-height="480"
     id="namedview5023"
     showgrid="false"
     inkscape:zoom="0.51687087"
     inkscape:cx="312.45715"
     inkscape:cy="176.64957"
     inkscape:window-x="971"
     inkscape:window-y="233"
     inkscape:window-maximized="0"
     inkscape:current-layer="g5029" /><g
     id="g5029"
     inkscape:groupmode="layer"
     inkscape:label="Untitled"
     transform="matrix(1.25,0,0,-1.25,-67.386463,910.97263)"><g
       id="g5031" /><g
       id="g5033"><g
         id="g5035"
         clip-path="url(#clipPath5037)"><text
           transform="matrix(1,0,0,-1,60,711.774)"
           id="text5041"><tspan
             style="fill:#000000;fill-opacity:1;fill-rule:nonzero;stroke:none;font-family:Helvetica;font-variant:normal;font-weight:bold;font-size:14;writing-mode:lr;-inkscape-font-specification:Helvetica-Bold"
             x="0 10.892 16.338 24.122 32.676 41.23 45.122 52.906 60.69 65.3562 69.2482 77.8022 86.3562 94.9102 99.5722 104.2384 114.3464 122.1304 129.9144 133.8064 141.5904 149.3744 154.0406 164.1486 172.7026 180.4866 189.0406 193.7026 201.4866 206.9326 211.5988 221.7068 230.2608 238.8148 247.3688 255.1528 262.9368 267.5988 276.1528 281.5988"
             y="0"
             sodipodi:role="line"
             id="tspan5043">Graphics Input Device Adapter Connectors</tspan></text>
<text
           transform="matrix(1,0,0,-1,132,687.234)"
           id="text5045"><tspan
             style="fill:#000000;fill-opacity:1;fill-rule:nonzero;stroke:none;font-family:Helvetica;font-variant:normal;font-weight:normal;font-size:10;writing-mode:lr;-inkscape-font-specification:Helvetica"
             x="0 6.11 13.33 18.89 22.223 27.783 31.113 36.673 42.233 47.233 49.453 52.233 54.453 60.013 65.573 68.906 77.236 79.456 85.016 87.236 90.566 97.786 100.566 107.786 111.119 116.119 121.679 127.239 132.799 138.359 143.359 146.139 151.699 155.029 160.029 163.362 168.922 172.252 177.812 181.145 186.705 190.035 195.595 200.595 202.815 208.375 213.935 219.495 222.828 225.608 231.168 234.498 237.831 243.391 246.171 248.951 254.511 259.511 265.071 273.401 278.961 284.521 287.301 290.634 296.194 298.974 302.307 307.867 312.867 315.647 321.207 324.537 330.097 335.657 337.877 341.21 346.77 352.33 357.33 359.55 364.55 370.11 373.443 378.443 384.003 389.563 391.783 397.343 402.343"
             y="0"
             sodipodi:role="line"
             id="tspan5047">Two 8-position mini-DIN connectors are provided for attachment of external device cables.</tspan></text>
<text
           transform="matrix(1,0,0,-1,132,674.694)"
           id="text5049"><tspan
             style="fill:#000000;fill-opacity:1;fill-rule:nonzero;stroke:none;font-family:Helvetica;font-variant:normal;font-weight:normal;font-size:10;writing-mode:lr;-inkscape-font-specification:Helvetica"
             x="0 6.11 11.67 17.23 20.563 25.563 27.783 33.343 38.903 44.463 46.683 51.683 55.016 60.576 63.906 69.466 72.799 75.579 81.139 86.699 90.032 95.032 100.592 108.922 114.482 117.815 120.595 126.155 129.485 132.818 138.378 143.938 146.718 152.278 155.611 160.611 166.171 171.731 177.291 182.851 187.851 190.631 196.191 199.521 204.521"
             y="0"
             sodipodi:role="line"
             id="tspan5051">The signals are the same for both connectors.</tspan></text>
<path
           d="m 334.209,654.034 c 15.912,0.072 28.872,-12.816 28.872,-28.728 0,-15.912 -12.888,-28.8 -28.8,-28.872 -15.912,0 -28.8,12.888 -28.8,28.8 0,15.912 12.816,28.8 28.728,28.8 m 2.952,-40.32 8.64,0 0,-8.712 -8.64,0 0,8.712 z m -13.464,0 8.64,0 0,-8.712 -8.64,0 0,8.712 z m 23.688,12.456 7.992,0 0,-8.64 -7.992,0 0,8.64 z m -13.392,0 7.992,0 0,-8.64 -7.992,0 0,8.64 z m -19.944,0 7.704,0 0,-8.64 -7.704,0 0,8.64 z m 27.936,15.336 8.568,0 0,-8.568 -8.568,0 0,8.568 z m -11.592,0 8.64,0 0,-8.568 -8.64,0 0,8.568 z m -12.456,0 8.64,0 0,-8.568 -8.64,0 0,8.568 z m 9.648,11.592 0,-4.824 m 12.456,4.824 0,-4.824 m -12.456,1.008 12.456,0"
           style="fill:none;stroke:#231f20;stroke-opacity:1;stroke-width:0.432;stroke-linecap:butt;stroke-linejoin:miter;stroke-miterlimit:2.613;stroke-dasharray:none"
           id="path5053" /><text
           transform="matrix(1,0,0,-1,376.545,589.882)"
           id="text5055"><tspan
             style="fill:#231f20;fill-opacity:1;fill-rule:nonzero;stroke:none;font-family:Swis721MdBT;font-variant:normal;font-weight:normal;font-size:8;writing-mode:lr;-inkscape-font-specification:Swis721MdBT"
             x="0"
             y="0"
             id="tspan5057">1</tspan></text>
<text
           transform="matrix(1,0,0,-1,376.545,613.8588)"
           id="text5059"><tspan
             style="fill:#231f20;fill-opacity:1;fill-rule:nonzero;stroke:none;font-family:Swis721MdBT;font-variant:normal;font-weight:normal;font-size:8;writing-mode:lr;-inkscape-font-specification:Swis721MdBT"
             x="0"
             y="0"
             id="tspan5061">3</tspan></text>
<text
           transform="matrix(1,0,0,-1,376.545,652.3076)"
           id="text5063"><tspan
             style="fill:#231f20;fill-opacity:1;fill-rule:nonzero;stroke:none;font-family:Swis721MdBT;font-variant:normal;font-weight:normal;font-size:8;writing-mode:lr;-inkscape-font-specification:Swis721MdBT"
             x="0"
             y="0"
             id="tspan5065">6</tspan></text>
<text
           transform="matrix(1,0,0,-1,291.8706,589.882)"
           id="text5067"><tspan
             style="fill:#231f20;fill-opacity:1;fill-rule:nonzero;stroke:none;font-family:Swis721MdBT;font-variant:normal;font-weight:normal;font-size:8;writing-mode:lr;-inkscape-font-specification:Swis721MdBT"
             x="0"
             y="0"
             id="tspan5069">2</tspan></text>
<text
           transform="matrix(1,0,0,-1,291.8706,613.8588)"
           id="text5071"><tspan
             style="fill:#231f20;fill-opacity:1;fill-rule:nonzero;stroke:none;font-family:Swis721MdBT;font-variant:normal;font-weight:normal;font-size:8;writing-mode:lr;-inkscape-font-specification:Swis721MdBT"
             x="0"
             y="0"
             id="tspan5073">5</tspan></text>
<text
           transform="matrix(1,0,0,-1,291.8706,652.3076)"
           id="text5075"><tspan
             style="fill:#231f20;fill-opacity:1;fill-rule:nonzero;stroke:none;font-family:Swis721MdBT;font-variant:normal;font-weight:normal;font-size:8;writing-mode:lr;-inkscape-font-specification:Swis721MdBT"
             x="0"
             y="0"
             id="tspan5077">8</tspan></text>
<path
           d="m 322.761,635.818 -24.048,17.28 m 48.024,-17.28 26.928,17.28 m -21.168,-31.752 22.104,-3.816 m -32.616,-9.576 31.68,-14.4 m -56.736,26.928 -18.216,-2.952 m 30.744,-9.576 -30.744,-14.4"
           style="fill:none;stroke:#231f20;stroke-opacity:1;stroke-width:0.432;stroke-linecap:butt;stroke-linejoin:miter;stroke-miterlimit:2.613;stroke-dasharray:none"
           id="path5079" /><path
           d="m 132,572.897 408,0 m -407.75,-0.25 0,-16.011 m 81.6,16.011 0,-16.011"
           style="fill:none;stroke:#000000;stroke-opacity:1;stroke-width:0.5;stroke-linecap:butt;stroke-linejoin:miter;stroke-miterlimit:10;stroke-dasharray:none"
           id="path5081" /><text
           transform="matrix(1,0,0,-1,155.298,561.361)"
           id="text5083"><tspan
             style="fill:#000000;fill-opacity:1;fill-rule:nonzero;stroke:none;font-family:Helvetica;font-variant:normal;font-weight:bold;font-size:9;writing-mode:lr;-inkscape-font-specification:Helvetica-Bold"
             x="0 6.003 11.502 16.506 19.008 22.005 24.507 30.006"
             y="0"
             sodipodi:role="line"
             id="tspan5085">Position</tspan></text>
<path
           d="m 458.65,572.647 0,-16.011"
           style="fill:none;stroke:#000000;stroke-opacity:1;stroke-width:0.5;stroke-linecap:butt;stroke-linejoin:miter;stroke-miterlimit:10;stroke-dasharray:none"
           id="path5087" /><text
           transform="matrix(1,0,0,-1,222.1,561.361)"
           id="text5089"><tspan
             style="fill:#000000;fill-opacity:1;fill-rule:nonzero;stroke:none;font-family:Helvetica;font-variant:normal;font-weight:bold;font-size:9;writing-mode:lr;-inkscape-font-specification:Helvetica-Bold"
             x="0 6.003 8.505 14.004 19.503 24.507 27.009 30.0087 36.5067 41.5107 49.5117"
             y="0"
             sodipodi:role="line"
             id="tspan5091">Signal Name</tspan></text>
<path
           d="m 539.75,572.647 0,-16.011"
           style="fill:none;stroke:#000000;stroke-opacity:1;stroke-width:0.5;stroke-linecap:butt;stroke-linejoin:miter;stroke-miterlimit:10;stroke-dasharray:none"
           id="path5093" /><text
           transform="matrix(1,0,0,-1,466.9,561.361)"
           id="text5095"><tspan
             style="fill:#000000;fill-opacity:1;fill-rule:nonzero;stroke:none;font-family:Helvetica;font-variant:normal;font-weight:bold;font-size:9;writing-mode:lr;-inkscape-font-specification:Helvetica-Bold"
             x="0 6.498 9 12.501 17.505 22.509 25.506 28.008 33.507"
             y="0"
             sodipodi:role="line"
             id="tspan5097">Direction</tspan></text>
<path
           d="m 132,556.386 408,0 m -407.75,-0.25 0,-49.869 m 81.6,49.869 0,-49.869"
           style="fill:none;stroke:#000000;stroke-opacity:1;stroke-width:0.5;stroke-linecap:butt;stroke-linejoin:miter;stroke-miterlimit:10;stroke-dasharray:none"
           id="path5099" /><text
           transform="matrix(1,0,0,-1,170.548,544.85)"
           id="text5101"><tspan
             style="fill:#000000;fill-opacity:1;fill-rule:nonzero;stroke:none;font-family:Helvetica;font-variant:normal;font-weight:normal;font-size:9;writing-mode:lr;-inkscape-font-specification:Helvetica"
             x="0"
             y="0"
             id="tspan5103">1</tspan></text>
<text
           transform="matrix(1,0,0,-1,170.548,533.564)"
           id="text5105"><tspan
             style="fill:#000000;fill-opacity:1;fill-rule:nonzero;stroke:none;font-family:Helvetica;font-variant:normal;font-weight:normal;font-size:9;writing-mode:lr;-inkscape-font-specification:Helvetica"
             x="0"
             y="0"
             id="tspan5107">2</tspan></text>
<text
           transform="matrix(1,0,0,-1,170.548,522.278)"
           id="text5109"><tspan
             style="fill:#000000;fill-opacity:1;fill-rule:nonzero;stroke:none;font-family:Helvetica;font-variant:normal;font-weight:normal;font-size:9;writing-mode:lr;-inkscape-font-specification:Helvetica"
             x="0"
             y="0"
             id="tspan5111">3</tspan></text>
<text
           transform="matrix(1,0,0,-1,170.548,510.992)"
           id="text5113"><tspan
             style="fill:#000000;fill-opacity:1;fill-rule:nonzero;stroke:none;font-family:Helvetica;font-variant:normal;font-weight:normal;font-size:9;writing-mode:lr;-inkscape-font-specification:Helvetica"
             x="0"
             y="0"
             id="tspan5115">4</tspan></text>
<path
           d="m 458.65,556.136 0,-49.869"
           style="fill:none;stroke:#000000;stroke-opacity:1;stroke-width:0.5;stroke-linecap:butt;stroke-linejoin:miter;stroke-miterlimit:10;stroke-dasharray:none"
           id="path5117" /><text
           transform="matrix(1,0,0,-1,222.1,544.85)"
           id="text5119"><tspan
             style="fill:#000000;fill-opacity:1;fill-rule:nonzero;stroke:none;font-family:Helvetica;font-variant:normal;font-weight:normal;font-size:9;writing-mode:lr;-inkscape-font-specification:Helvetica"
             x="0 6.003 8.001 13.005 18.009 23.013 25.011 28.0107 31.0077 36.0117 38.5137 43.5177 46.5147"
             y="0"
             sodipodi:role="line"
             id="tspan5121">Signal return</tspan></text>
<text
           transform="matrix(1,0,0,-1,222.1,533.564)"
           id="text5123"><tspan
             style="fill:#000000;fill-opacity:1;fill-rule:nonzero;stroke:none;font-family:Helvetica;font-variant:normal;font-weight:normal;font-size:9;writing-mode:lr;-inkscape-font-specification:Helvetica"
             x="0 6.498 12.996 15.9957 18.9927 23.9967 26.4987 31.5027 34.4997"
             y="0"
             sodipodi:role="line"
             id="tspan5125">DC return</tspan></text>
<text
           transform="matrix(1,0,0,-1,222.1,522.278)"
           id="text5127"><tspan
             style="fill:#000000;fill-opacity:1;fill-rule:nonzero;stroke:none;font-family:Helvetica;font-variant:normal;font-weight:normal;font-size:9;writing-mode:lr;-inkscape-font-specification:Helvetica"
             x="0 5.256 8.2557 13.2597 16.2594 22.2624 25.2621 30.2661"
             y="0"
             sodipodi:role="line"
             id="tspan5129">+ 5 V dc</tspan></text>
<text
           transform="matrix(1,0,0,-1,222.1,510.992)"
           id="text5131"><tspan
             style="fill:#000000;fill-opacity:1;fill-rule:nonzero;stroke:none;font-family:Helvetica;font-variant:normal;font-weight:normal;font-size:9;writing-mode:lr;-inkscape-font-specification:Helvetica"
             x="0 6.003 11.007 13.005 18.009 22.509 25.011 27.009 31.509 36.513 39.5127 42.5097 47.5137 52.0137 57.0177"
             y="0"
             sodipodi:role="line"
             id="tspan5133">Selective reset</tspan></text>
<path
           d="m 539.75,556.136 0,-49.869"
           style="fill:none;stroke:#000000;stroke-opacity:1;stroke-width:0.5;stroke-linecap:butt;stroke-linejoin:miter;stroke-miterlimit:10;stroke-dasharray:none"
           id="path5135" /><text
           transform="matrix(1,0,0,-1,466.9,510.992)"
           id="text5137"><tspan
             style="fill:#000000;fill-opacity:1;fill-rule:nonzero;stroke:none;font-family:Helvetica;font-variant:normal;font-weight:normal;font-size:9;writing-mode:lr;-inkscape-font-specification:Helvetica"
             x="0 5.499 10.503 13.5027 18.5067 23.5107 28.0107 30.0087 34.5087"
             y="0"
             sodipodi:role="line"
             id="tspan5139">To device</tspan></text>
<path
           d="m 132,506.017 408,0 m -407.75,-0.25 0,-49.869 m 81.6,49.869 0,-49.869"
           style="fill:none;stroke:#000000;stroke-opacity:1;stroke-width:0.5;stroke-linecap:butt;stroke-linejoin:miter;stroke-miterlimit:10;stroke-dasharray:none"
           id="path5141" /><text
           transform="matrix(1,0,0,-1,170.548,494.481)"
           id="text5143"><tspan
             style="fill:#000000;fill-opacity:1;fill-rule:nonzero;stroke:none;font-family:Helvetica;font-variant:normal;font-weight:normal;font-size:9;writing-mode:lr;-inkscape-font-specification:Helvetica"
             x="0"
             y="0"
             id="tspan5145">5</tspan></text>
<text
           transform="matrix(1,0,0,-1,170.548,483.195)"
           id="text5147"><tspan
             style="fill:#000000;fill-opacity:1;fill-rule:nonzero;stroke:none;font-family:Helvetica;font-variant:normal;font-weight:normal;font-size:9;writing-mode:lr;-inkscape-font-specification:Helvetica"
             x="0"
             y="0"
             id="tspan5149">6</tspan></text>
<text
           transform="matrix(1,0,0,-1,170.548,471.909)"
           id="text5151"><tspan
             style="fill:#000000;fill-opacity:1;fill-rule:nonzero;stroke:none;font-family:Helvetica;font-variant:normal;font-weight:normal;font-size:9;writing-mode:lr;-inkscape-font-specification:Helvetica"
             x="0"
             y="0"
             id="tspan5153">7</tspan></text>
<text
           transform="matrix(1,0,0,-1,170.548,460.623)"
           id="text5155"><tspan
             style="fill:#000000;fill-opacity:1;fill-rule:nonzero;stroke:none;font-family:Helvetica;font-variant:normal;font-weight:normal;font-size:9;writing-mode:lr;-inkscape-font-specification:Helvetica"
             x="0"
             y="0"
             id="tspan5157">8</tspan></text>
<path
           d="m 458.65,505.767 0,-49.869"
           style="fill:none;stroke:#000000;stroke-opacity:1;stroke-width:0.5;stroke-linecap:butt;stroke-linejoin:miter;stroke-miterlimit:10;stroke-dasharray:none"
           id="path5159" /><text
           transform="matrix(1,0,0,-1,222.1,494.481)"
           id="text5161"><tspan
             style="fill:#000000;fill-opacity:1;fill-rule:nonzero;stroke:none;font-family:Helvetica;font-variant:normal;font-weight:normal;font-size:9;writing-mode:lr;-inkscape-font-specification:Helvetica"
             x="0 6.498 11.502 16.002 21.006 23.004 27.504 32.508 35.5077 40.5117 45.5157 48.0177"
             y="0"
             sodipodi:role="line"
             id="tspan5163">Receive data</tspan></text>
<text
           transform="matrix(1,0,0,-1,222.1,483.195)"
           id="text5165"><tspan
             style="fill:#000000;fill-opacity:1;fill-rule:nonzero;stroke:none;font-family:Helvetica;font-variant:normal;font-weight:normal;font-size:9;writing-mode:lr;-inkscape-font-specification:Helvetica"
             x="0 5.499 8.496 13.5 18.504 23.004 30.501 32.499 35.001 38.0007 43.0047 48.0087 50.5107"
             y="0"
             sodipodi:role="line"
             id="tspan5167">Transmit data</tspan></text>
<text
           transform="matrix(1,0,0,-1,222.1,471.909)"
           id="text5169"><tspan
             style="fill:#000000;fill-opacity:1;fill-rule:nonzero;stroke:none;font-family:Helvetica;font-variant:normal;font-weight:normal;font-size:9;writing-mode:lr;-inkscape-font-specification:Helvetica"
             x="0 6.498 8.496 13.5 18.504 23.508 28.512 33.012 35.514 37.512 42.012 45.0117 49.5117 54.5157 56.5137 61.5177 66.0177 68.5197 70.5177 75.0177 80.0217 83.0214 86.0184 91.0224 95.5224 100.5264"
             y="0"
             sodipodi:role="line"
             id="tspan5171">Diagnostic selective reset</tspan></text>
<text
           transform="matrix(1,0,0,-1,222.1,460.623)"
           id="text5173"><tspan
             style="fill:#000000;fill-opacity:1;fill-rule:nonzero;stroke:none;font-family:Helvetica;font-variant:normal;font-weight:normal;font-size:9;writing-mode:lr;-inkscape-font-specification:Helvetica"
             x="0 6.498 11.502 16.002 21.006 24.003 28.503 33.507"
             y="0"
             sodipodi:role="line"
             id="tspan5175">Reserved</tspan></text>
<path
           d="m 539.75,505.767 0,-49.869"
           style="fill:none;stroke:#000000;stroke-opacity:1;stroke-width:0.5;stroke-linecap:butt;stroke-linejoin:miter;stroke-miterlimit:10;stroke-dasharray:none"
           id="path5177" /><text
           transform="matrix(1,0,0,-1,466.9,494.481)"
           id="text5179"><tspan
             style="fill:#000000;fill-opacity:1;fill-rule:nonzero;stroke:none;font-family:Helvetica;font-variant:normal;font-weight:normal;font-size:9;writing-mode:lr;-inkscape-font-specification:Helvetica"
             x="0 5.499 8.496 13.5 20.997 23.9967 29.0007 34.0047 38.5047 40.5027 45.0027"
             y="0"
             sodipodi:role="line"
             id="tspan5181">From device</tspan></text>
<text
           transform="matrix(1,0,0,-1,466.9,483.195)"
           id="text5183"><tspan
             style="fill:#000000;fill-opacity:1;fill-rule:nonzero;stroke:none;font-family:Helvetica;font-variant:normal;font-weight:normal;font-size:9;writing-mode:lr;-inkscape-font-specification:Helvetica"
             x="0 5.499 10.503 13.5027 18.5067 23.5107 28.0107 30.0087 34.5087"
             y="0"
             sodipodi:role="line"
             id="tspan5185">To device</tspan></text>
<text
           transform="matrix(1,0,0,-1,466.9,471.909)"
           id="text5187"><tspan
             style="fill:#000000;fill-opacity:1;fill-rule:nonzero;stroke:none;font-family:Helvetica;font-variant:normal;font-weight:normal;font-size:9;writing-mode:lr;-inkscape-font-specification:Helvetica"
             x="0 5.499 8.496 13.5 20.997 23.9967 29.0007 34.0047 38.5047 40.5027 45.0027"
             y="0"
             sodipodi:role="line"
             id="tspan5189">From device</tspan></text>
<path
           d="m 132,455.648 408,0"
           style="fill:none;stroke:#000000;stroke-opacity:1;stroke-width:0.5;stroke-linecap:butt;stroke-linejoin:miter;stroke-miterlimit:10;stroke-dasharray:none"
           id="path5191" /><text
           transform="matrix(1,0,0,-1,60,24)"
           id="text5193"><tspan
             style="fill:#000000;fill-opacity:1;fill-rule:nonzero;stroke:none;font-family:Helvetica;font-variant:normal;font-weight:bold;font-size:11;writing-mode:lr;-inkscape-font-specification:Helvetica-Bold"
             x="0 6.116 9.779 15.895 22.011"
             y="0"
             sodipodi:role="line"
             id="tspan5195">1-134</tspan></text>
<text
           transform="matrix(1,0,0,-1,100.125,24)"
           id="text5197"><tspan
             style="fill:#000000;fill-opacity:1;fill-rule:nonzero;stroke:none;font-family:Helvetica;font-variant:normal;font-weight:normal;font-size:8;writing-mode:lr;-inkscape-font-specification:Helvetica"
             x="0 5.336 9.784 14.232 18.68 20.904 25.352 28.016 32.016 34.24 36.9056 42.6816 47.1296 51.1296 52.9056 56.9056 61.3536 65.3536 67.5776 70.2432 74.6912 79.1392 83.5872 86.2528 92.0288 96.4768 100.9248 102.7008 107.1488 109.8144 112.0384 116.4864 118.7104 123.1584 125.8224 132.4864 136.9344 139.1584 140.9344 145.3824 149.8304 152.496 154.72 159.168 161.832 164.4976 171.1616 172.9376 176.9376 179.6016 184.0496 186.7152 192.4912 196.9392 201.3872 205.8352 210.2832 214.7312 216.5072 219.1728 224.5088 228.9568 232.9568 235.6224 240.9584 244.9584 248.9584 251.1824 255.6304 262.2944 266.2944"
             y="0"
             sodipodi:role="line"
             id="tspan5199">Adapters, Devices, and Cable Information for Micro Channel Bus Systems </tspan></text>
</g></g></g></svg>